<?xml version="1.0" standalone="no"?>
<!DOCTYPE svg PUBLIC "-//W3C//DTD SVG 20010904//EN"
 "http://www.w3.org/TR/2001/REC-SVG-20010904/DTD/svg10.dtd">
<svg version="1.0" xmlns="http://www.w3.org/2000/svg"
 width="512.000000pt" height="512.000000pt" viewBox="0 0 512.000000 512.000000"
 preserveAspectRatio="xMidYMid meet">
<metadata>
Created by potrace 1.14, written by Peter Selinger 2001-2017
</metadata>
<g transform="translate(0.000000,512.000000) scale(0.100000,-0.100000)"
fill="#000000" stroke="none">
<path d="M2305 5114 c-306 -44 -384 -60 -563 -120 -264 -87 -449 -182 -677
-347 -243 -177 -415 -349 -592 -592 -238 -329 -375 -660 -445 -1075 -20 -118
-22 -170 -22 -420 0 -250 2 -302 22 -420 36 -212 88 -394 167 -586 199 -479
586 -922 1055 -1206 257 -155 561 -264 890 -320 118 -20 170 -22 420 -22 250
0 302 2 420 22 329 56 633 165 890 320 362 219 683 540 902 902 155 257 264
561 320 890 20 118 22 170 22 420 0 250 -2 302 -22 420 -70 415 -207 746 -445
1075 -177 243 -349 415 -592 592 -228 165 -413 260 -677 347 -275 91 -445 117
-783 121 -143 2 -273 1 -290 -1z m105 -714 l0 -410 -471 0 -471 0 41 75 c119
222 280 414 455 543 50 36 93 70 96 74 19 25 279 127 328 128 l22 0 0 -410z
m406 389 c69 -21 234 -94 244 -107 3 -4 48 -39 100 -79 179 -135 332 -316 451
-538 l41 -75 -471 0 -471 0 0 410 c0 470 -12 425 106 389z m-1409 -328 c-29
-38 -67 -96 -86 -128 -19 -32 -46 -76 -61 -98 -15 -22 -51 -86 -79 -142 l-51
-103 -160 0 c-88 0 -160 4 -160 8 0 12 277 285 340 334 90 71 281 197 302 198
4 0 -16 -31 -45 -69z m2352 17 c156 -93 228 -152 409 -331 78 -77 142 -144
142 -149 0 -4 -72 -8 -160 -8 l-160 0 -51 103 c-28 56 -64 120 -79 142 -15 22
-42 66 -61 98 -19 32 -57 90 -86 128 -29 38 -49 69 -46 69 3 0 44 -23 92 -52z
m-2744 -809 c-70 -218 -133 -558 -150 -804 -3 -49 -8 -105 -11 -122 l-5 -33
-274 0 c-151 0 -275 4 -275 8 0 39 35 275 51 342 25 108 66 243 89 295 49 110
99 216 128 273 l32 62 211 0 c209 0 210 0 204 -21z m1395 -469 l0 -490 -630 0
-630 0 0 23 c0 52 23 262 41 382 33 213 76 384 139 549 l10 26 535 0 535 0 0
-490z m1412 372 c46 -132 79 -277 107 -457 18 -120 41 -330 41 -382 l0 -23
-630 0 -630 0 0 490 0 490 536 -2 537 -3 39 -113z m761 -9 c110 -226 141 -310
186 -503 16 -67 51 -303 51 -342 0 -4 -123 -8 -274 -8 l-275 0 -5 43 c-3 23
-8 83 -11 132 -15 214 -83 575 -150 784 -6 21 -5 21 205 21 l211 0 62 -127z
m-3729 -1195 c3 -24 8 -81 11 -128 14 -207 66 -497 129 -722 l25 -88 -210 0
-209 0 -32 63 c-29 56 -79 162 -128 272 -23 52 -64 187 -89 295 -16 67 -51
303 -51 342 0 4 123 8 274 8 l275 0 5 -42z m1556 -448 l0 -490 -536 2 -537 3
-39 113 c-46 132 -79 277 -107 457 -18 120 -41 330 -41 383 l0 22 630 0 630 0
0 -490z m1560 468 c0 -53 -23 -263 -41 -383 -28 -180 -61 -325 -107 -457 l-39
-113 -537 -3 -536 -2 0 490 0 490 630 0 630 0 0 -22z m850 14 c0 -39 -35 -275
-51 -342 -25 -108 -66 -243 -89 -295 -49 -110 -99 -216 -128 -272 l-32 -63
-209 0 -210 0 25 88 c57 205 116 535 129 722 3 47 8 104 11 128 l5 42 275 0
c151 0 274 -4 274 -8z m-3639 -1374 c28 -57 64 -121 79 -143 15 -22 42 -66 61
-98 19 -32 57 -90 86 -128 29 -38 49 -69 46 -69 -8 0 -172 100 -213 129 -92
67 -156 124 -287 254 -79 77 -143 144 -143 149 0 4 72 8 160 8 l160 0 51 -102z
m1229 -308 c0 -470 12 -425 -106 -389 -72 22 -234 94 -244 108 -3 4 -46 37
-96 74 -170 124 -337 323 -455 542 l-41 75 471 0 471 0 0 -410z m1201 335
c-118 -219 -285 -418 -455 -542 -50 -37 -93 -70 -96 -74 -10 -14 -172 -86
-244 -108 -118 -36 -106 -81 -106 389 l0 410 471 0 471 0 -41 -75z m699 67 c0
-4 -64 -72 -142 -149 -131 -130 -194 -185 -288 -254 -41 -29 -205 -129 -213
-129 -3 0 17 31 46 69 29 38 67 96 86 128 19 32 46 76 61 98 15 22 51 86 79
143 l51 102 160 0 c88 0 160 -4 160 -8z"/>
</g>
</svg>
